<svg width="64" height="14" viewBox="0 0 64 14" fill="none" xmlns="http://www.w3.org/2000/svg">
<g clip-path="url(#clip0_2_181)">
<path d="M59.8145 3.92978V10.2455H53.6808V3.92978H59.8145Z" fill="#FF3159"/>
<path d="M63.9749 2.51474V5.81593H60.7612V2.51474H63.9749Z" fill="#FF8E2F"/>
<path d="M59.346 0.628693V2.98669H56.9862V0.628693H59.346Z" fill="#01AAF3"/>
<path fill-rule="evenodd" clip-rule="evenodd" d="M45.8102 13.926V11.1334L47.4814 9.34868L50.3921 13.926H52.9264L48.9781 7.80442L52.651 3.93917H50.1901L45.8102 8.40548V1.39993H43.6708V13.926H45.8102ZM4.15837 3.79109C5.39797 3.79109 6.72021 4.16097 7.6017 4.79901L6.82121 6.3895C5.9489 5.84393 4.85622 5.51103 3.98391 5.51103C3.14833 5.51103 2.53312 5.78844 2.53312 6.50047C2.53312 7.26191 3.43994 7.53555 4.498 7.85483C5.98408 8.30328 7.76852 8.84175 7.7578 10.9483C7.7578 12.9826 5.95808 13.8981 3.97473 13.8981C2.52394 13.8981 0.990507 13.4172 0.00801086 12.511L0.770134 10.976C1.62408 11.7435 2.99223 12.2059 4.06655 12.2059C4.97559 12.2059 5.68262 11.8915 5.68262 11.1425C5.68262 10.269 4.72622 9.98025 3.63615 9.65113C2.1874 9.21372 0.502553 8.70503 0.513032 6.65766C0.531397 4.65106 2.27602 3.79109 4.15837 3.79109ZM12.6795 3.79109C13.9191 3.79109 15.2413 4.16097 16.132 4.79901L15.3515 6.3895C14.4792 5.84393 13.3865 5.51103 12.5142 5.51103C11.6786 5.51103 11.0634 5.78844 11.0634 6.50047C11.0634 7.26191 11.9702 7.53555 13.0283 7.85483C14.5144 8.30328 16.2988 8.84175 16.2881 10.9483C16.2881 12.9826 14.4884 13.8981 12.505 13.8981C11.0542 13.8981 9.52078 13.4172 8.53828 12.511L9.30041 10.976C10.1544 11.7435 11.5225 12.2059 12.5968 12.2059C13.5059 12.2059 14.2129 11.8915 14.2129 11.1425C14.2129 10.269 13.2565 9.98025 12.1664 9.65113C10.7177 9.21372 9.03283 8.70503 9.0433 6.65766C9.05249 4.65106 10.7879 3.79109 12.6795 3.79109ZM23.2941 11.5493L23.8267 13.1953C23.0462 13.6669 22.229 13.9258 21.4026 13.9258C19.9242 13.9258 18.6387 13.0659 18.6387 11.0315V5.86242H17.2522V4.25344H18.6387V1.52557H20.7506V4.25344H25.2866H25.3693H26.6731V1.52557H28.785V4.25344H31.6958V5.86242H28.785V10.6339C28.785 11.6603 29.1707 11.984 29.841 11.984C30.2817 11.9747 30.75 11.8268 31.3193 11.5401L31.861 13.1861C31.0806 13.6577 30.2633 13.9166 29.4369 13.9166C27.9586 13.9166 26.6731 13.0566 26.6731 11.0223V5.86242H25.3693H25.2866H20.7506V10.6339C20.7506 11.6603 21.1363 11.984 21.8066 11.984C22.2565 11.9747 22.7248 11.8268 23.2941 11.5493ZM37.5816 3.80958C41.0433 3.80958 42.4573 6.0936 42.191 9.68144H34.7443C35.0748 11.2164 36.2501 12.1689 37.8019 12.1689C38.8763 12.1689 39.8588 11.762 40.5841 11.013L41.7136 12.2244C40.7494 13.2878 39.3445 13.9073 37.6367 13.9073C34.5973 13.9073 32.5956 11.873 32.5956 8.87695C32.5956 5.86242 34.6524 3.82807 37.5816 3.80958ZM34.7075 8.10945H40.3454C40.2719 6.50047 39.216 5.52953 37.5999 5.52953C36.039 5.52953 34.9463 6.51896 34.7075 8.10945Z" fill="black"/>
</g>
<defs>
<clipPath id="clip0_2_181">
<rect width="64" height="14" fill="white"/>
</clipPath>
</defs>
</svg>
